<svg xmlns="http://www.w3.org/2000/svg" viewBox="0 0 154.75 154.75"><defs><style>.cls-1{fill:#6c63ff;}.cls-2{fill:#fff;}</style></defs><title>Asset 3</title><g id="Layer_2" data-name="Layer 2"><g id="Layer_1-2" data-name="Layer 1"><circle class="cls-1" cx="77.38" cy="77.38" r="77.38"/><path class="cls-2" d="M109.43,111.09H45.32a4.42,4.42,0,0,1-4.42-4.42V68a4.42,4.42,0,0,1,4.42-4.42h64.11A4.42,4.42,0,0,1,113.85,68v38.69A4.42,4.42,0,0,1,109.43,111.09ZM45.32,68v38.69h64.11V68Z"/><path class="cls-2" d="M97.27,68H57.48V50.29c0-12.81,8.37-22.1,19.9-22.1s19.89,9.29,19.89,22.1ZM61.9,63.56H92.85V50.29c0-10.41-6.36-17.68-15.47-17.68S61.9,39.88,61.9,50.29Z"/><circle class="cls-2" cx="77.38" cy="86.22" r="4.42"/></g></g></svg>